<svg id="visual" viewBox="0 0 900 600" width="900" height="600" xmlns="http://www.w3.org/2000/svg" xmlns:xlink="http://www.w3.org/1999/xlink" version="1.1"><rect width="900" height="600" fill="#7a18e9"></rect><g><g transform="translate(826 12)"><path d="M27.4 -21.3C34.1 -13.4 37.2 -2.1 35.2 8.7C33.3 19.5 26.3 29.8 16.3 35C6.4 40.3 -6.6 40.5 -16.6 35.3C-26.6 30.2 -33.6 19.7 -35.7 8.7C-37.9 -2.4 -35.1 -14.1 -28.3 -22C-21.5 -29.9 -10.8 -34 -0.2 -33.9C10.4 -33.7 20.7 -29.2 27.4 -21.3Z" stroke="#872feb" fill="none" stroke-width="20"></path></g><g transform="translate(688 8)"><path d="M25.8 -20.9C30.8 -14.3 30.4 -3.7 27.4 5.1C24.5 13.8 18.9 20.8 11.2 25.2C3.6 29.7 -6.3 31.5 -14 28.2C-21.8 24.8 -27.4 16.2 -29.7 6.6C-32 -2.9 -30.9 -13.3 -25.4 -20.1C-19.9 -26.8 -9.9 -29.8 0.2 -30C10.4 -30.1 20.8 -27.5 25.8 -20.9Z" stroke="#872feb" fill="none" stroke-width="20"></path></g><g transform="translate(663 298)"><path d="M21 -17.2C26.8 -9.5 30.8 -0.8 29.4 7.2C28 15.2 21.1 22.4 12.7 26.5C4.3 30.6 -5.6 31.5 -12.7 27.6C-19.8 23.8 -24.1 15.1 -25.5 6.5C-26.9 -2.1 -25.5 -10.7 -20.8 -18.2C-16.1 -25.7 -8.1 -32.1 -0.2 -31.9C7.6 -31.8 15.2 -25 21 -17.2Z" stroke="#872feb" fill="none" stroke-width="20"></path></g><g transform="translate(216 391)"><path d="M27.2 -19.6C33.8 -13.3 36.8 -2.1 33.9 6.6C31 15.2 22.1 21.4 13.4 24.2C4.7 26.9 -3.8 26.3 -11.6 23C-19.4 19.7 -26.5 13.7 -28.1 6.4C-29.8 -0.8 -26 -9.3 -20.5 -15.4C-14.9 -21.4 -7.4 -25 1.4 -26.2C10.3 -27.3 20.5 -25.9 27.2 -19.6Z" stroke="#872feb" fill="none" stroke-width="20"></path></g><g transform="translate(371 544)"><path d="M25.2 -18.8C31.3 -12.4 34.1 -2 32.2 7.8C30.3 17.6 23.8 26.8 15 30.9C6.2 35.1 -4.9 34.2 -15 29.9C-25.2 25.5 -34.3 17.7 -35.4 9.2C-36.4 0.6 -29.5 -8.7 -22.3 -15.3C-15 -21.9 -7.5 -25.9 1 -26.7C9.5 -27.5 19.1 -25.2 25.2 -18.8Z" stroke="#872feb" fill="none" stroke-width="20"></path></g><g transform="translate(431 303)"><path d="M23.7 -21.1C28.5 -13 28.3 -3.3 26.8 7.1C25.2 17.5 22.2 28.7 15 32.7C7.8 36.8 -3.6 33.9 -12 28.5C-20.4 23 -25.9 15.1 -28.8 5.6C-31.7 -3.9 -32.1 -14.9 -26.9 -23.1C-21.7 -31.3 -10.8 -36.7 -0.7 -36.2C9.5 -35.7 19 -29.2 23.7 -21.1Z" stroke="#872feb" fill="none" stroke-width="20"></path></g><g transform="translate(499 472)"><path d="M20.4 -17.8C26.1 -9.1 30.2 -0.6 29.6 8.6C29 17.8 23.5 27.7 15 32.2C6.5 36.7 -5.1 35.7 -14.5 30.9C-23.9 26.1 -31.1 17.4 -32.6 8.2C-34.2 -1.1 -30 -10.9 -23.7 -19.8C-17.3 -28.7 -8.6 -36.6 -0.7 -36.1C7.3 -35.6 14.7 -26.6 20.4 -17.8Z" stroke="#872feb" fill="none" stroke-width="20"></path></g><g transform="translate(566 158)"><path d="M26.1 -19.8C32 -13.4 33.7 -2.7 31.5 7.1C29.2 17 22.9 25.8 14.1 30.6C5.2 35.4 -6.3 36.2 -13.7 31.5C-21.2 26.8 -24.5 16.6 -25.4 7.3C-26.4 -1.9 -24.8 -10.2 -20.2 -16.3C-15.5 -22.4 -7.7 -26.2 1.2 -27.2C10.1 -28.1 20.2 -26.1 26.1 -19.8Z" stroke="#872feb" fill="none" stroke-width="20"></path></g><g transform="translate(697 461)"><path d="M25.3 -20.1C31.2 -12.7 33.4 -2.3 30.9 6.5C28.5 15.3 21.4 22.5 12.4 27.5C3.4 32.5 -7.4 35.3 -14.5 31.4C-21.6 27.5 -24.8 17 -27 6.4C-29.2 -4.1 -30.4 -14.6 -25.7 -21.8C-21 -28.9 -10.5 -32.7 -0.4 -32.4C9.7 -32 19.3 -27.6 25.3 -20.1Z" stroke="#872feb" fill="none" stroke-width="20"></path></g><g transform="translate(101 584)"><path d="M26.2 -18.4C33.3 -12 37.9 -1.1 36.4 9.3C34.8 19.7 27 29.8 16.8 34.5C6.7 39.2 -5.8 38.6 -14.2 33.2C-22.6 27.7 -26.9 17.4 -29.4 6.7C-31.9 -4.1 -32.5 -15.3 -27.3 -21.2C-22.1 -27.2 -11.1 -27.9 -0.8 -27.3C9.5 -26.7 19.1 -24.8 26.2 -18.4Z" stroke="#872feb" fill="none" stroke-width="20"></path></g><g transform="translate(444 136)"><path d="M23.9 -20.3C28.8 -13 29 -3.1 26.5 5.3C24 13.7 18.7 20.8 11.1 25.2C3.6 29.7 -6.2 31.5 -13.6 28.1C-21 24.6 -26 15.8 -28.9 5.8C-31.9 -4.3 -32.8 -15.6 -27.7 -23C-22.5 -30.5 -11.3 -34 -0.9 -33.3C9.5 -32.6 19 -27.7 23.9 -20.3Z" stroke="#872feb" fill="none" stroke-width="20"></path></g><g transform="translate(348 161)"><path d="M19.4 -17.4C24 -9.6 25.9 -1.6 24.6 6.3C23.3 14.2 18.9 22.2 11.1 27.8C3.2 33.4 -8 36.7 -15.4 32.8C-22.8 29 -26.3 17.9 -28.1 7.2C-30 -3.6 -30.2 -13.9 -25.3 -21.8C-20.3 -29.7 -10.1 -35 -1.4 -33.9C7.4 -32.8 14.7 -25.2 19.4 -17.4Z" stroke="#872feb" fill="none" stroke-width="20"></path></g><g transform="translate(30 58)"><path d="M22.8 -17C30.1 -9.1 36.9 0.4 35.9 9.6C34.9 18.7 26.2 27.4 16.2 31.2C6.3 35 -4.8 34 -13.7 29.3C-22.5 24.7 -29.2 16.4 -31.9 6.7C-34.5 -3 -33.1 -14.1 -27.1 -21.7C-21.1 -29.4 -10.6 -33.4 -1.4 -32.3C7.8 -31.2 15.6 -24.9 22.8 -17Z" stroke="#872feb" fill="none" stroke-width="20"></path></g><g transform="translate(407 433)"><path d="M26.5 -19.1C33.6 -12.3 38 -1.3 35.9 8.3C33.8 17.8 25.1 26 15.8 29C6.5 32 -3.5 29.9 -12.1 25.6C-20.6 21.2 -27.9 14.6 -30.7 6C-33.5 -2.7 -31.9 -13.4 -26.1 -19.9C-20.2 -26.5 -10.1 -28.8 -0.2 -28.6C9.7 -28.5 19.4 -25.9 26.5 -19.1Z" stroke="#872feb" fill="none" stroke-width="20"></path></g><g transform="translate(196 224)"><path d="M25.2 -20.9C29.9 -14.3 28.9 -4 25.9 4.7C23 13.4 18.1 20.4 11.3 23.8C4.5 27.2 -4.1 26.9 -12.2 23.6C-20.3 20.4 -27.8 14.2 -31.3 5.3C-34.9 -3.7 -34.5 -15.5 -28.6 -22.4C-22.8 -29.3 -11.4 -31.4 -0.5 -31C10.3 -30.5 20.6 -27.6 25.2 -20.9Z" stroke="#872feb" fill="none" stroke-width="20"></path></g><g transform="translate(122 133)"><path d="M23.4 -18.4C30.4 -9.9 36.3 -0.1 34.7 8.4C33.1 16.9 24.1 24.1 14 29C3.9 33.8 -7.4 36.3 -17.1 32.7C-26.8 29.1 -35 19.5 -37.2 8.8C-39.4 -1.9 -35.7 -13.7 -28.5 -22.3C-21.3 -30.8 -10.7 -36.2 -1.2 -35.2C8.2 -34.2 16.4 -26.9 23.4 -18.4Z" stroke="#872feb" fill="none" stroke-width="20"></path></g><g transform="translate(90 323)"><path d="M27.3 -21.6C32.1 -15.8 30.4 -4.6 27.1 4.7C23.8 14.1 18.9 21.6 11.2 26.7C3.4 31.7 -7.2 34.3 -16 30.9C-24.8 27.6 -31.9 18.2 -33.9 8.1C-36 -2 -32.9 -12.9 -26.4 -19.2C-19.9 -25.4 -10 -27 0.6 -27.5C11.3 -28 22.5 -27.5 27.3 -21.6Z" stroke="#872feb" fill="none" stroke-width="20"></path></g><g transform="translate(785 555)"><path d="M26.6 -23.1C31.6 -15 30.6 -4.1 28 6.1C25.4 16.3 21.2 25.8 14.2 29C7.2 32.2 -2.7 29.1 -10.8 24.4C-18.9 19.7 -25.3 13.5 -28.7 4.8C-32.1 -3.9 -32.5 -15.1 -27.2 -23.2C-21.9 -31.4 -11 -36.5 -0.1 -36.5C10.8 -36.4 21.7 -31.2 26.6 -23.1Z" stroke="#872feb" fill="none" stroke-width="20"></path></g><g transform="translate(850 480)"><path d="M27.3 -23.2C32.5 -15.3 31.7 -4.1 29.4 7C27.1 18 23.2 29 15.5 32.9C7.9 36.9 -3.4 33.8 -12.9 28.5C-22.3 23.3 -29.7 15.9 -32.4 6.7C-35 -2.5 -32.8 -13.5 -26.6 -21.6C-20.4 -29.7 -10.2 -35 0.4 -35.4C11.1 -35.7 22.1 -31.1 27.3 -23.2Z" stroke="#872feb" fill="none" stroke-width="20"></path></g><g transform="translate(892 116)"><path d="M24.7 -18.9C30.1 -12.9 31.3 -2.8 29.2 6.7C27 16.2 21.6 24.9 13.3 29.7C5 34.5 -6.3 35.4 -16 31.4C-25.8 27.4 -34.1 18.5 -36.4 8.4C-38.6 -1.8 -34.9 -13.4 -27.9 -19.7C-20.8 -26 -10.4 -27.2 -0.4 -26.9C9.7 -26.6 19.3 -24.9 24.7 -18.9Z" stroke="#872feb" fill="none" stroke-width="20"></path></g><g transform="translate(41 212)"><path d="M28.9 -22.8C35.3 -15 36.9 -3.1 34.2 7.5C31.6 18.1 24.6 27.4 15 32.7C5.3 38 -7.1 39.2 -17 34.7C-26.9 30.1 -34.3 19.8 -36.3 9C-38.2 -1.9 -34.7 -13.4 -27.7 -21.3C-20.8 -29.2 -10.4 -33.7 0.4 -34C11.2 -34.4 22.5 -30.6 28.9 -22.8Z" stroke="#872feb" fill="none" stroke-width="20"></path></g><g transform="translate(233 19)"><path d="M25.3 -19.1C31.9 -12 35.5 -1.5 32.9 6.5C30.3 14.5 21.3 20 12 24.1C2.8 28.1 -6.6 30.8 -13.7 27.7C-20.8 24.6 -25.5 15.7 -26.8 7C-28.1 -1.7 -25.9 -10.3 -20.9 -17.1C-15.8 -23.9 -7.9 -28.9 0.7 -29.5C9.4 -30.1 18.8 -26.3 25.3 -19.1Z" stroke="#872feb" fill="none" stroke-width="20"></path></g><g transform="translate(177 477)"><path d="M27.9 -22C34.9 -13.5 38.4 -2 36 8.1C33.6 18.2 25.3 26.8 15.8 30.6C6.2 34.4 -4.7 33.4 -12.8 28.7C-20.8 24 -26.1 15.6 -28.8 5.9C-31.6 -3.8 -32 -14.8 -26.8 -22.9C-21.5 -31 -10.8 -36.2 -0.2 -36.1C10.4 -36 20.9 -30.5 27.9 -22Z" stroke="#872feb" fill="none" stroke-width="20"></path></g><g transform="translate(561 43)"><path d="M28.1 -21.7C34.2 -14.7 35.4 -3.2 32.7 6.9C29.9 16.9 23.1 25.4 14.4 29.4C5.7 33.4 -4.9 32.8 -12.4 28.3C-19.9 23.7 -24.3 15.1 -27.4 5.3C-30.4 -4.6 -32.1 -15.8 -27.3 -22.4C-22.5 -29.1 -11.3 -31.2 -0.1 -31.1C11 -31 22 -28.6 28.1 -21.7Z" stroke="#872feb" fill="none" stroke-width="20"></path></g><g transform="translate(587 590)"><path d="M25.3 -19.5C32.4 -11.2 37.6 -0.7 35.4 7.6C33.1 15.9 23.3 22 13.1 26.8C2.8 31.6 -7.9 35.2 -15.2 31.6C-22.5 28.1 -26.4 17.5 -29.1 6.4C-31.8 -4.7 -33.5 -16.4 -28.4 -24.1C-23.4 -31.9 -11.7 -35.9 -1.3 -34.8C9.1 -33.8 18.1 -27.7 25.3 -19.5Z" stroke="#872feb" fill="none" stroke-width="20"></path></g><g transform="translate(780 204)"><path d="M28.3 -23.1C35 -14.3 37.4 -2.6 34.3 6.5C31.2 15.7 22.5 22.3 13.5 25.8C4.4 29.3 -5 29.7 -14.3 26.5C-23.6 23.2 -32.8 16.4 -34.7 7.9C-36.7 -0.6 -31.4 -10.7 -24.4 -19.7C-17.4 -28.6 -8.7 -36.3 1.1 -37.1C10.9 -38 21.7 -32 28.3 -23.1Z" stroke="#872feb" fill="none" stroke-width="20"></path></g><g transform="translate(275 576)"><path d="M27.3 -20.6C33.4 -14.2 34.9 -2.9 31.8 6C28.8 15 21.2 21.7 12.7 25.4C4.2 29.1 -5.3 29.8 -12.3 26.2C-19.4 22.6 -24.1 14.6 -26.8 5.3C-29.6 -3.9 -30.5 -14.4 -25.7 -20.6C-20.9 -26.7 -10.4 -28.5 0.1 -28.6C10.6 -28.6 21.3 -27 27.3 -20.6Z" stroke="#872feb" fill="none" stroke-width="20"></path></g><g transform="translate(344 258)"><path d="M21.9 -16.5C27.6 -10.3 30.9 -1.3 28.9 6.4C27 14.1 20 20.5 11.3 25.3C2.7 30.2 -7.5 33.5 -15.4 30.3C-23.2 27.2 -28.7 17.5 -29.9 8C-31.1 -1.5 -28.2 -10.8 -22.5 -17C-16.8 -23.2 -8.4 -26.2 -0.1 -26.1C8.1 -26 16.2 -22.7 21.9 -16.5Z" stroke="#872feb" fill="none" stroke-width="20"></path></g><g transform="translate(428 35)"><path d="M23.9 -17.1C31.1 -10 37.2 -0.1 35.2 7.7C33.1 15.4 22.9 20.9 13.6 23.5C4.4 26.1 -4 25.9 -12 22.9C-20 19.8 -27.7 13.9 -31 5.4C-34.3 -3.1 -33.2 -14.4 -27.3 -21.2C-21.4 -28 -10.7 -30.4 -1.2 -29.5C8.3 -28.6 16.7 -24.3 23.9 -17.1Z" stroke="#872feb" fill="none" stroke-width="20"></path></g><g transform="translate(847 330)"><path d="M27.6 -20.5C34.3 -13.7 37.1 -2.3 35.1 8.6C33.1 19.6 26.3 30.1 17.3 33.5C8.3 36.9 -3 33.2 -13.5 28.1C-24 23 -33.8 16.5 -35.2 8.6C-36.6 0.7 -29.5 -8.6 -22.2 -15.6C-15 -22.6 -7.5 -27.2 1.5 -28.4C10.5 -29.6 21 -27.4 27.6 -20.5Z" stroke="#872feb" fill="none" stroke-width="20"></path></g><g transform="translate(759 393)"><path d="M20.5 -16.2C26.1 -9.3 29.8 -0.8 28.6 7.4C27.4 15.7 21.4 23.7 13.2 27.8C5 31.9 -5.2 32 -14.7 28.3C-24.1 24.6 -32.8 17 -35.6 7.4C-38.3 -2.3 -35.3 -14 -28.4 -21.1C-21.5 -28.3 -10.7 -30.9 -1.6 -29.6C7.5 -28.3 14.9 -23.1 20.5 -16.2Z" stroke="#872feb" fill="none" stroke-width="20"></path></g><g transform="translate(870 590)"><path d="M30.1 -21.4C37.3 -15 40.4 -2.5 36.7 6.4C33.1 15.4 22.9 20.8 13.4 23.9C3.9 27 -4.9 27.8 -14.1 25C-23.2 22.2 -32.6 15.9 -34.6 7.8C-36.5 -0.4 -31 -10.3 -24 -16.7C-16.9 -23 -8.5 -25.8 1.5 -27C11.4 -28.1 22.9 -27.8 30.1 -21.4Z" stroke="#872feb" fill="none" stroke-width="20"></path></g><g transform="translate(568 283)"><path d="M23 -18.8C28 -12.1 28.9 -2.6 27.7 7.6C26.4 17.9 22.8 29 15.1 33.5C7.4 38 -4.4 35.9 -13.6 30.6C-22.7 25.2 -29.2 16.7 -32.3 6.4C-35.5 -3.9 -35.3 -16 -29.4 -23C-23.4 -29.9 -11.7 -31.9 -1.4 -30.8C9 -29.7 18 -25.6 23 -18.8Z" stroke="#872feb" fill="none" stroke-width="20"></path></g><g transform="translate(675 143)"><path d="M22.6 -15.6C29.8 -9 36.5 0.5 35.9 10.2C35.3 20 27.4 30.2 17.4 34.3C7.4 38.4 -4.6 36.5 -14.7 31.4C-24.8 26.2 -32.9 17.8 -35.1 8.1C-37.3 -1.7 -33.5 -12.7 -26.7 -19.3C-19.9 -25.8 -9.9 -27.8 -1.1 -26.9C7.7 -26 15.4 -22.2 22.6 -15.6Z" stroke="#872feb" fill="none" stroke-width="20"></path></g><g transform="translate(51 440)"><path d="M24.4 -18.2C31.7 -10.3 37.7 -0.1 36.4 9.3C35 18.8 26.2 27.5 15.8 32.4C5.4 37.2 -6.7 38.1 -15.1 33.3C-23.5 28.5 -28.3 18 -29 8.5C-29.6 -1 -26.1 -9.5 -20.6 -17C-15.1 -24.5 -7.5 -31.1 0.5 -31.5C8.5 -31.9 17.1 -26.1 24.4 -18.2Z" stroke="#872feb" fill="none" stroke-width="20"></path></g><g transform="translate(594 498)"><path d="M29 -22.2C35.7 -14.6 38.1 -2.7 35 6.7C31.8 16 23 22.8 13.3 27.5C3.5 32.2 -7.2 34.7 -16.7 31.4C-26.1 28.1 -34.3 18.9 -36.1 8.8C-37.9 -1.2 -33.4 -12.1 -26.3 -19.8C-19.3 -27.5 -9.6 -31.9 0.7 -32.5C11.1 -33.1 22.2 -29.8 29 -22.2Z" stroke="#872feb" fill="none" stroke-width="20"></path></g><g transform="translate(352 356)"><path d="M29.8 -21.7C36.6 -15.2 38.6 -3 36.1 8.2C33.5 19.3 26.2 29.3 16.8 33.3C7.3 37.2 -4.3 35.1 -13.7 30C-23 24.8 -30.2 16.7 -31.9 7.7C-33.6 -1.2 -29.8 -11 -23.6 -17.4C-17.4 -23.8 -8.7 -26.8 1.4 -27.9C11.5 -29 23 -28.3 29.8 -21.7Z" stroke="#872feb" fill="none" stroke-width="20"></path></g><g transform="translate(582 401)"><path d="M21.3 -17.2C25.9 -11.3 26.7 -2.5 25.6 7.3C24.6 17.2 21.7 28.1 14.8 31.8C7.9 35.5 -2.9 32 -10.9 26.6C-19 21.3 -24.2 14 -25.6 6.3C-27 -1.4 -24.5 -9.5 -19.6 -15.5C-14.7 -21.6 -7.4 -25.5 0.5 -25.9C8.4 -26.3 16.8 -23.2 21.3 -17.2Z" stroke="#872feb" fill="none" stroke-width="20"></path></g><g transform="translate(330 65)"><path d="M30.4 -22.4C37.7 -15.2 40.6 -2.6 37.6 7.8C34.6 18.3 25.7 26.6 16.1 29.9C6.5 33.1 -3.8 31.3 -12.9 26.9C-21.9 22.5 -29.6 15.5 -32.8 6.1C-36 -3.2 -34.7 -14.9 -28.5 -21.9C-22.3 -28.9 -11.1 -31.1 0.2 -31.3C11.6 -31.4 23.2 -29.6 30.4 -22.4Z" stroke="#872feb" fill="none" stroke-width="20"></path></g><g transform="translate(458 582)"><path d="M21.3 -18.2C26.3 -10.6 28.3 -1.9 26.8 6.7C25.4 15.3 20.4 23.7 13.2 27C6 30.3 -3.5 28.6 -12.8 24.8C-22.2 21 -31.4 15.1 -33.2 7.5C-35 -0.2 -29.4 -9.6 -22.7 -17.5C-15.9 -25.5 -7.9 -32 0.1 -32.1C8.1 -32.2 16.2 -25.8 21.3 -18.2Z" stroke="#872feb" fill="none" stroke-width="20"></path></g><g transform="translate(895 238)"><path d="M26.5 -21.6C32.3 -13.9 33.4 -3 31.2 7.2C28.9 17.5 23.3 27.1 15.4 30.2C7.5 33.4 -2.7 30.1 -11.2 25.2C-19.6 20.4 -26.3 14 -29.4 5.3C-32.5 -3.4 -32 -14.2 -26.5 -21.8C-21 -29.5 -10.5 -33.8 -0.1 -33.8C10.4 -33.7 20.8 -29.3 26.5 -21.6Z" stroke="#872feb" fill="none" stroke-width="20"></path></g><g transform="translate(486 225)"><path d="M20.3 -16.9C25.9 -9.3 29.6 -0.8 28.6 7.7C27.6 16.3 21.9 25 13.2 30.3C4.5 35.6 -7.3 37.5 -14.5 32.9C-21.8 28.4 -24.7 17.3 -26.9 6.4C-29.2 -4.5 -30.9 -15.2 -26.3 -22.6C-21.7 -30 -10.9 -34 -1.7 -32.6C7.4 -31.2 14.8 -24.5 20.3 -16.9Z" stroke="#872feb" fill="none" stroke-width="20"></path></g><g transform="translate(250 133)"><path d="M23.2 -17.6C29.1 -11 32.4 -1.5 30.2 6.3C27.9 14 20.2 19.9 11.8 23.6C3.4 27.2 -5.5 28.7 -12.2 25.4C-18.9 22.2 -23.2 14.2 -26.4 4.8C-29.5 -4.7 -31.5 -15.7 -26.9 -21.9C-22.3 -28.2 -11.1 -29.8 -1.3 -28.8C8.6 -27.8 17.2 -24.2 23.2 -17.6Z" stroke="#872feb" fill="none" stroke-width="20"></path></g><g transform="translate(266 309)"><path d="M22.9 -16.7C29.7 -9.8 35.2 -0.3 33.2 7.3C31.3 14.9 22 20.6 12.1 25.6C2.2 30.6 -8.3 34.8 -16.1 31.8C-23.9 28.7 -28.9 18.2 -30.9 7.6C-32.9 -3 -31.8 -13.8 -26.1 -20.5C-20.5 -27.2 -10.2 -29.8 -1.1 -29C8.1 -28.1 16.1 -23.7 22.9 -16.7Z" stroke="#872feb" fill="none" stroke-width="20"></path></g><g transform="translate(287 479)"><path d="M25.3 -19.1C31.9 -12 35.7 -1.5 34.1 8.8C32.6 19 25.7 29.1 17 31.9C8.3 34.8 -2.1 30.5 -10.5 25.2C-18.9 19.8 -25.2 13.5 -27.6 5.6C-29.9 -2.3 -28.2 -11.7 -23 -18.5C-17.7 -25.3 -8.9 -29.4 0.3 -29.6C9.4 -29.9 18.8 -26.1 25.3 -19.1Z" stroke="#872feb" fill="none" stroke-width="20"></path></g><g transform="translate(14 544)"><path d="M26.1 -20.8C32 -13.5 33.6 -2.7 31.7 7.9C29.8 18.5 24.4 29 15.6 33.6C6.9 38.3 -5.3 37.2 -13.1 31.7C-20.9 26.2 -24.5 16.3 -26.9 6C-29.3 -4.3 -30.7 -14.9 -26 -21.9C-21.4 -29 -10.7 -32.4 -0.3 -32.2C10.1 -32 20.3 -28.1 26.1 -20.8Z" stroke="#872feb" fill="none" stroke-width="20"></path></g><g transform="translate(678 566)"><path d="M23.5 -19.8C28.5 -12.6 29.1 -2.9 27.7 7.5C26.3 18 22.9 29.2 15.6 32.8C8.4 36.4 -2.6 32.4 -11.7 27C-20.9 21.6 -28.1 14.8 -30.9 6C-33.8 -2.9 -32.3 -13.7 -26.5 -21.2C-20.6 -28.6 -10.3 -32.6 -0.5 -32.2C9.3 -31.8 18.6 -27 23.5 -19.8Z" stroke="#872feb" fill="none" stroke-width="20"></path></g><g transform="translate(769 94)"><path d="M22.8 -16.3C29.3 -10.1 34.1 -0.6 32.5 7.9C31 16.5 23.1 24.1 14.1 28.1C5 32 -5.3 32.2 -13 28.1C-20.8 24 -26 15.5 -27.9 6.6C-29.8 -2.4 -28.4 -12 -23.2 -17.9C-18 -23.8 -9 -26.1 -0.4 -25.8C8.2 -25.4 16.3 -22.5 22.8 -16.3Z" stroke="#872feb" fill="none" stroke-width="20"></path></g><g transform="translate(141 3)"><path d="M26.8 -21.7C32.5 -14.2 33.3 -3.2 31.1 7.3C28.9 17.8 23.6 27.9 15.7 30.9C7.9 34 -2.4 30.2 -12.2 25.4C-21.9 20.6 -31.2 14.9 -34.5 6.2C-37.7 -2.5 -35.1 -14.1 -28.3 -21.9C-21.6 -29.7 -10.8 -33.5 -0.1 -33.4C10.5 -33.3 21.1 -29.3 26.8 -21.7Z" stroke="#872feb" fill="none" stroke-width="20"></path></g></g></svg>